<svg xmlns="http://www.w3.org/2000/svg" viewBox="0 0 141.23 141.23"><defs><style>.cls-1{fill:#fff;}</style></defs><title>Asset 4</title><g id="Layer_2" data-name="Layer 2"><g id="Layer_1-2" data-name="Layer 1"><path id="_Compound_Path_" data-name="&lt;Compound Path&gt;" class="cls-1" d="M100.46,0H40.76A40.76,40.76,0,0,0,0,40.76v59.7a40.76,40.76,0,0,0,40.76,40.76h59.7a40.76,40.76,0,0,0,40.76-40.76V40.76A40.76,40.76,0,0,0,100.46,0Zm27.76,101.51a27.06,27.06,0,0,1-27.06,27.06H40.06A27.06,27.06,0,0,1,13,101.51V40.42A27.06,27.06,0,0,1,40.06,13.36h61.1a27.06,27.06,0,0,1,27.06,27.06Z"/><path class="cls-1" d="M107.46,74.59H91.54V67.48c0-3.34,2.22-4.12,3.77-4.12h11.15V48.65l-16.15,0c-14.65,0-17.43,11-17.43,18v8H61.69V89.51H72.88v44.77H91.54V89.51H105.9Z"/></g></g></svg>