<svg xmlns="http://www.w3.org/2000/svg" viewBox="0 0 141.23 141.23"><defs><style>.cls-1{fill:#fff;}</style></defs><title>Asset 5</title><g id="Layer_2" data-name="Layer 2"><g id="Layer_1-2" data-name="Layer 1"><path id="_Compound_Path_" data-name="&lt;Compound Path&gt;" class="cls-1" d="M100.46,0H40.76A40.76,40.76,0,0,0,0,40.76v59.7a40.76,40.76,0,0,0,40.76,40.76h59.7a40.76,40.76,0,0,0,40.76-40.76V40.76A40.76,40.76,0,0,0,100.46,0Zm27.76,101.51a27.06,27.06,0,0,1-27.06,27.06H40.06A27.06,27.06,0,0,1,13,101.51V40.42A27.06,27.06,0,0,1,40.06,13.36h61.1a27.06,27.06,0,0,1,27.06,27.06Z"/><path id="_Compound_Path_2" data-name="&lt;Compound Path&gt;" class="cls-1" d="M70.61,34.32A36.64,36.64,0,1,0,107.26,71,36.64,36.64,0,0,0,70.61,34.32Zm0,60.4A23.75,23.75,0,1,1,94.37,71,23.75,23.75,0,0,1,70.61,94.72Z"/><circle id="_Path_" data-name="&lt;Path&gt;" class="cls-1" cx="108.48" cy="32.93" r="8.54"/></g></g></svg>