<svg xmlns="http://www.w3.org/2000/svg" viewBox="0 0 141.23 141.23"><defs><style>.cls-1{fill:#fff;}</style></defs><title>Asset 3</title><g id="Layer_2" data-name="Layer 2"><g id="Layer_1-2" data-name="Layer 1"><path id="_Compound_Path_" data-name="&lt;Compound Path&gt;" class="cls-1" d="M100.46,0H40.76A40.76,40.76,0,0,0,0,40.76v59.7a40.76,40.76,0,0,0,40.76,40.76h59.7a40.76,40.76,0,0,0,40.76-40.76V40.76A40.76,40.76,0,0,0,100.46,0Zm27.76,101.51a27.06,27.06,0,0,1-27.06,27.06H40.06A27.06,27.06,0,0,1,13,101.51V40.42A27.06,27.06,0,0,1,40.06,13.36h61.1a27.06,27.06,0,0,1,27.06,27.06Z"/><path class="cls-1" d="M105.46,52.51a7.32,7.32,0,0,1-6.72,0c2.83-1.69,3-2.88,4-6.09A27.45,27.45,0,0,1,94,49.8,13.72,13.72,0,0,0,70.67,62.3,38.9,38.9,0,0,1,42.42,48a13.72,13.72,0,0,0,4.24,18.3,13.67,13.67,0,0,1-6.21-1.71c0,.06,0,.11,0,.17a13.71,13.71,0,0,0,11,13.44,13.75,13.75,0,0,1-6.19.24,13.73,13.73,0,0,0,12.8,9.52A27.56,27.56,0,0,1,37.77,93.6a38.81,38.81,0,0,0,21,6.16c25.21,0,39-20.88,39-39,0-.6,0-1.18,0-1.77C100.4,57.06,103.62,55.26,105.46,52.51Z"/></g></g></svg>