<svg xmlns="http://www.w3.org/2000/svg" viewBox="0 0 141.23 141.23"><defs><style>.cls-1{fill:#fff;}</style></defs><title>Asset 2</title><g id="Layer_2" data-name="Layer 2"><g id="Layer_1-2" data-name="Layer 1"><path id="_Compound_Path_" data-name="&lt;Compound Path&gt;" class="cls-1" d="M100.46,0H40.76A40.76,40.76,0,0,0,0,40.76v59.7a40.76,40.76,0,0,0,40.76,40.76h59.7a40.76,40.76,0,0,0,40.76-40.76V40.76A40.76,40.76,0,0,0,100.46,0Zm27.76,101.51a27.06,27.06,0,0,1-27.06,27.06H40.06A27.06,27.06,0,0,1,13,101.51V40.42A27.06,27.06,0,0,1,40.06,13.36h61.1a27.06,27.06,0,0,1,27.06,27.06Z"/><path class="cls-1" d="M39.77,59.15l2.34,3.07s4.83-3.81,6.44-1.9,7.76,24.89,9.81,29.14c1.79,3.72,6.73,8.64,12.15,5.12s23.43-18.88,26.65-37S75.5,43.18,72.86,59C79.45,55,83,60.6,79.6,66.9s-6.44,10.4-8.05,10.4-2.85-4.21-4.69-11.57C65,58.12,65,44.41,57,46,49.58,47.43,39.77,59.15,39.77,59.15Z"/></g></g></svg>